Coordinates
version=1
nRows=26
nColumns=24
inDegrees=yes

Units are S.I. units (second, meters, Newtons, ...)
Angles are in degrees.

endheader
time	pelvis_tilt	pelvis_list	pelvis_rotation	pelvis_tx	pelvis_ty	pelvis_tz	hip_flexion_r	hip_adduction_r	hip_rotation_r	knee_angle_r	ankle_angle_r	subtalar_angle_r	mtp_angle_r	hip_flexion_l	hip_adduction_l	hip_rotation_l	knee_angle_l	ankle_angle_l	subtalar_angle_l	mtp_angle_l	lumbar_extension	lumbar_bending	lumbar_rotation
      3.50000000	    -15.59298499	    -11.13271915	      5.39627384	      1.41026927	     -0.02627204	     -0.44411237	     31.31853826	     10.03841611	     -8.02952717	    -16.50792976	     -6.87662699	     -1.10641891	      7.52953473	     15.40639735	    -18.27064619	     -7.83658430	    -56.04996671	    -32.82361280	     14.06829446	     24.72980410	     15.85433927	     11.08867488	     -8.62750948
      3.50500000	    -15.38405624	    -11.12418543	      5.39095929	      1.41667382	     -0.02498522	     -0.44360347	     30.45985061	     10.19322666	     -7.93454640	    -16.06850321	     -6.69036011	     -0.92903575	      7.68803884	     16.05311581	    -18.23566452	     -7.54175697	    -57.13621413	    -31.91629230	     13.36333517	     24.82626382	     15.66204610	     11.09380806	     -8.44035864
      3.51000000	    -15.20528681	    -11.03349422	      5.37353922	      1.42303198	     -0.02369521	     -0.44312808	     29.63383722	     10.25188376	     -7.86035754	    -15.65260074	     -6.48412744	     -0.64070856	      7.91212996	     16.70412015	    -18.08577325	     -7.26751259	    -58.15211893	    -30.94843777	     12.81335211	     24.77302609	     15.49231766	     11.01464978	     -8.20610055
      3.51500000	    -15.04816603	    -10.90701822	      5.30561354	      1.42938871	     -0.02244354	     -0.44258609	     28.82871414	     10.29262174	     -7.74210898	    -15.24784339	     -6.27915017	     -0.32944377	      8.16974968	     17.33731351	    -17.90933400	     -7.06042582	    -59.09449376	    -29.94622941	     12.50775619	     24.68609493	     15.33945833	     10.91057687	     -7.91658677
      3.52000000	    -14.96268409	    -10.75755204	      5.20709432	      1.43566826	     -0.02127458	     -0.44190661	     28.10962705	     10.32970674	     -7.51986008	    -14.86342651	     -6.09422995	     -0.18243875	      8.22077309	     18.03089672	    -17.70815689	     -6.86946639	    -59.92851571	    -29.15092513	     12.26476821	     25.03018850	     15.24656873	     10.76548903	     -7.57399398
      3.52500000	    -14.75718511	    -10.57086852	      5.08694233	      1.44199424	     -0.01998075	     -0.44130388	     27.23790641	     10.34167696	     -7.28748595	    -14.45203507	     -5.90501049	      0.08619209	      8.42435004	     18.54646186	    -17.48930173	     -6.77734564	    -60.71413764	    -28.19745801	     12.24990226	     24.88918595	     15.02909817	     10.62121034	     -7.20280197
      3.53000000	    -14.68560700	    -10.41891112	      4.99034481	      1.44827565	     -0.01886611	     -0.44069813	     26.52178009	     10.36105113	     -7.07350516	    -14.04457056	     -5.74327594	      0.22172808	      8.45768976	     19.24012490	    -17.27516080	     -6.63519785	    -61.42211426	    -27.50849673	     12.07567376	     25.19978133	     14.97064830	     10.47784601	     -6.87613503
      3.53500000	    -14.54182641	    -10.18092015	      4.81672623	      1.45459333	     -0.01766377	     -0.43996696	     25.70360402	     10.34438617	     -6.69344490	    -13.62879510	     -5.57271152	      0.33464774	      8.51855621	     19.76277495	    -17.00745523	     -6.60364913	    -62.02249323	    -26.76324571	     12.26726403	     25.40969363	     14.81760441	     10.27334220	     -6.44731028
      3.54000000	    -14.37218545	     -9.98385136	      4.64327021	      1.46086204	     -0.01648128	     -0.43925167	     24.85417548	     10.37233438	     -6.29212434	    -13.18622984	     -5.45744619	      0.34288440	      8.51242956	     20.26657537	    -16.78967555	     -6.59766670	    -62.57895427	    -26.07774661	     12.38787117	     25.61613448	     14.63650853	     10.11560806	     -6.03077300
      3.54500000	    -14.28370209	     -9.73466612	      4.47434845	      1.46711621	     -0.01539919	     -0.43854572	     24.09774529	     10.32153878	     -5.92818187	    -12.76858149	     -5.29134476	      0.40816692	      8.49993009	     20.84356523	    -16.48971499	     -6.57929326	    -63.05218713	    -25.50121059	     12.55868882	     25.96459736	     14.54848035	      9.88816092	     -5.61259182
      3.55000000	    -14.17324700	     -9.47859382	      4.26364020	      1.47335262	     -0.01432547	     -0.43777924	     23.30861746	     10.28297792	     -5.48787867	    -12.33701425	     -5.14926114	      0.41997213	      8.44802003	     21.36165463	    -16.20590285	     -6.62595632	    -63.45196213	    -24.94548357	     12.79975294	     26.35998773	     14.43033586	      9.66846096	     -5.15562378
      3.55500000	    -14.03974381	     -9.22139452	      4.02733077	      1.47949644	     -0.01324738	     -0.43697149	     22.49518755	     10.25290707	     -5.00572973	    -11.89392656	     -5.05870985	      0.36480877	      8.33124235	     21.83878616	    -15.93328667	     -6.71048087	    -63.78732361	    -24.41882025	     13.05331033	     26.79341412	     14.27007289	      9.45731925	     -4.65324345
      3.56000000	    -13.90434409	     -8.96747082	      3.77599624	      1.48570959	     -0.01222467	     -0.43613591	     21.65969685	     10.22689149	     -4.47266423	    -11.42650337	     -4.93647068	      0.29214457	      8.16588239	     22.28774478	    -15.67951745	     -6.84066295	    -64.05474078	    -23.91191767	     13.29581376	     27.25014543	     14.12519191	      9.24934888	     -4.18569723
      3.56500000	    -13.85090702	     -8.66312845	      3.56433970	      1.49187283	     -0.01131496	     -0.43538626	     20.93086876	     10.09999493	     -4.07654966	    -10.98983709	     -4.77017211	      0.34618402	      8.11364193	     22.83505203	    -15.33117075	     -6.92907507	    -64.27453165	    -23.41588026	     13.57568525	     27.62486237	     14.07826988	      8.96803342	     -3.75461575
      3.57000000	    -13.70377192	     -8.39800030	      3.24591088	      1.49798711	     -0.01034896	     -0.43446413	     20.08637962	     10.06641628	     -3.53119311	    -10.51677303	     -4.69351238	      0.28675531	      7.96901426	     23.22509279	    -15.10060704	     -7.15257999	    -64.42209972	    -22.89144804	     13.86606384	     28.05350976	     13.90176966	      8.76758498	     -3.19524452
      3.57500000	    -13.62670146	     -8.09980214	      2.95909229	      1.50407181	     -0.00950076	     -0.43360635	     19.33137793	      9.95729003	     -3.09866635	    -10.06518540	     -4.56871620	      0.34527535	      7.91283980	     23.69873302	    -14.80571041	     -7.34540098	    -64.52551353	    -22.36399377	     14.15777276	     28.39414359	     13.81129039	      8.51470450	     -2.68914551
      3.58000000	    -13.54198595	     -7.80342167	      2.64954424	      1.51013557	     -0.00869461	     -0.43271988	     18.56786298	      9.84755528	     -2.66852312	     -9.60513032	     -4.45803181	      0.41311781	      7.90059468	     24.14699463	    -14.53095372	     -7.58052145	    -64.57750527	    -21.81947480	     14.42568658	     28.67763169	     13.71137427	      8.26959923	     -2.16728880
      3.58500000	    -13.51312976	     -7.49141984	      2.36054814	      1.51617745	     -0.00800313	     -0.43186387	     17.87547644	      9.69453678	     -2.31087234	     -9.15750290	     -4.31008479	      0.55066055	      7.93973645	     24.66041383	    -14.22393281	     -7.79656541	    -64.58372477	    -21.27962367	     14.66839537	     28.91742701	     13.68146291	      7.99457626	     -1.69868956
      3.59000000	    -13.37472689	     -7.20719529	      1.98731313	      1.52217364	     -0.00723780	     -0.43090406	     17.05448864	      9.60214706	     -1.85236446	     -8.67769423	     -4.26495227	      0.59162854	      8.02821942	     25.00943005	    -14.01223056	     -8.13844436	    -64.53542491	    -20.68059191	     14.85257392	     29.05651024	     13.51058472	      7.78198747	     -1.10472077
      3.59500000	    -13.36897555	     -6.90407318	      1.65996537	      1.52816020	     -0.00668782	     -0.43000909	     16.40142496	      9.44656682	     -1.51093914	     -8.24044750	     -4.11524304	      0.77566199	      8.11279131	     25.52538229	    -13.74257780	     -8.40923069	    -64.44734200	    -20.11956503	     15.02541323	     29.22851762	     13.50254625	      7.52279777	     -0.62318882
      3.60000000	    -13.31877160	     -6.61197155	      1.26659141	      1.53409557	     -0.00614073	     -0.42904223	     15.70770789	      9.31700346	     -1.12111976	     -7.80801937	     -4.00700475	      0.94575887	      8.21933917	     25.96055603	    -13.53191548	     -8.77525594	    -64.31155856	    -19.52252647	     15.12408501	     29.32984402	     13.43475824	      7.29964537	     -0.05156680
      3.60500000	    -13.18307671	     -6.34043441	      0.88548429	      1.54000659	     -0.00554975	     -0.42808124	     14.91032235	      9.20691765	     -0.69014366	     -7.33539939	     -3.98377664	      0.95005010	      8.40864621	     26.29511824	    -13.34855906	     -9.15211826	    -64.13333864	    -18.87675119	     15.13262528	     29.27317939	     13.27182377	      7.09560556	      0.51822481
      3.61000000	    -13.15055000	     -6.06366513	      0.49773212	      1.54586890	     -0.00513302	     -0.42713345	     14.25580248	      9.07116080	     -0.30690273	     -6.91716627	     -3.88560034	      1.07711335	      8.54405442	     26.74637640	    -13.15560916	     -9.51415749	    -63.91202260	    -18.27359390	     15.12125439	     29.28466750	     13.22090229	      6.88143597	      1.06886695
      3.61500000	    -13.14386225	     -5.77067665	      0.12815043	      1.55175105	     -0.00479798	     -0.42619843	     13.63848015	      8.90467293	      0.06739571	     -6.51644986	     -3.74737662	      1.19827016	      8.63002802	     27.21547780	    -12.93757451	     -9.86582306	    -63.63300993	    -17.67242927	     15.06045994	     29.29374427	     13.21382178	      6.63858141	      1.55092806
      3.62000000	    -13.02776229	     -5.52675263	     -0.27081266	      1.55755750	     -0.00440210	     -0.42523001	     12.90206533	      8.79977602	      0.52395433	     -6.09566223	     -3.71160153	      1.13815414	      8.72858189	     27.55134133	    -12.80247171	    -10.26931313	    -63.32842096	    -16.99126976	     14.92424532	     29.10394599	     13.06794880	      6.46080339	      2.10826516
      3.62500000	    -13.02638001	     -5.25044289	     -0.65643357	      1.56333059	     -0.00418599	     -0.42428630	     12.33180979	      8.64028449	      0.89909738	     -5.75114826	     -3.57021028	      1.21982927	      8.77662461	     28.01337711	    -12.61486000	    -10.63612208	    -62.96706735	    -16.37286580	     14.75525175	     29.02405734	     13.05481078	      6.23961400	      2.63399458
